<svg xmlns="http://www.w3.org/2000/svg" width="1280" height="400" viewBox="0 0 1280 400" font-family="Inter,'Helvetica Neue',Arial,sans-serif">
<defs>
  <radialGradient id="bg" cx="72%" cy="38%" r="85%">
    <stop offset="0%" stop-color="#211E1B"/>
    <stop offset="55%" stop-color="#161513"/>
    <stop offset="100%" stop-color="#0F0E0D"/>
  </radialGradient>
  <linearGradient id="fade" x1="0" y1="0" x2="1" y2="0">
    <stop offset="0%" stop-color="#161513" stop-opacity="1"/>
    <stop offset="45%" stop-color="#161513" stop-opacity="0"/>
  </linearGradient>
</defs>

<rect width="1280" height="400" fill="url(#bg)"/>

<!-- background full-width waveform, low opacity -->
<g opacity="0.16"><rect x="70.0" y="197.0" width="4.5" height="6.0" rx="2.2" fill="#E64A40" opacity="0.90"/><rect x="79.0" y="191.0" width="4.5" height="18.0" rx="2.2" fill="#E64A40" opacity="0.90"/><rect x="88.0" y="177.6" width="4.5" height="44.9" rx="2.2" fill="#B23A30" opacity="1.00"/><rect x="97.0" y="171.9" width="4.5" height="56.1" rx="2.2" fill="#B23A30" opacity="1.00"/><rect x="106.0" y="165.5" width="4.5" height="69.0" rx="2.2" fill="#B23A30" opacity="1.00"/><rect x="115.0" y="168.7" width="4.5" height="62.6" rx="2.2" fill="#B23A30" opacity="1.00"/><rect x="124.0" y="180.8" width="4.5" height="38.4" rx="2.2" fill="#E64A40" opacity="0.90"/><rect x="133.0" y="169.1" width="4.5" height="61.7" rx="2.2" fill="#E64A40" opacity="0.90"/><rect x="142.0" y="164.3" width="4.5" height="71.3" rx="2.2" fill="#E64A40" opacity="0.90"/><rect x="151.0" y="147.7" width="4.5" height="104.5" rx="2.2" fill="#B23A30" opacity="1.00"/><rect x="160.0" y="151.8" width="4.5" height="96.4" rx="2.2" fill="#B23A30" opacity="1.00"/><rect x="169.0" y="160.8" width="4.5" height="78.5" rx="2.2" fill="#E64A40" opacity="0.90"/><rect x="178.0" y="175.8" width="4.5" height="48.4" rx="2.2" fill="#E64A40" opacity="0.90"/><rect x="187.0" y="187.3" width="4.5" height="25.4" rx="2.2" fill="#E64A40" opacity="0.90"/><rect x="196.0" y="153.0" width="4.5" height="94.1" rx="2.2" fill="#E64A40" opacity="0.90"/><rect x="205.0" y="143.9" width="4.5" height="112.1" rx="2.2" fill="#E64A40" opacity="0.90"/><rect x="214.0" y="128.8" width="4.5" height="142.4" rx="2.2" fill="#B23A30" opacity="1.00"/><rect x="223.0" y="133.2" width="4.5" height="133.6" rx="2.2" fill="#B23A30" opacity="1.00"/><rect x="232.0" y="152.5" width="4.5" height="95.0" rx="2.2" fill="#E64A40" opacity="0.90"/><rect x="241.0" y="157.2" width="4.5" height="85.5" rx="2.2" fill="#E64A40" opacity="0.90"/><rect x="250.0" y="144.3" width="4.5" height="111.4" rx="2.2" fill="#E64A40" opacity="0.90"/><rect x="259.0" y="108.8" width="4.5" height="182.4" rx="2.2" fill="#B23A30" opacity="1.00"/><rect x="268.0" y="106.1" width="4.5" height="187.8" rx="2.2" fill="#B23A30" opacity="1.00"/><rect x="277.0" y="109.9" width="4.5" height="180.3" rx="2.2" fill="#B23A30" opacity="1.00"/><rect x="286.0" y="124.6" width="4.5" height="150.8" rx="2.2" fill="#E64A40" opacity="0.90"/><rect x="295.0" y="166.4" width="4.5" height="67.2" rx="2.2" fill="#E64A40" opacity="0.90"/><rect x="304.0" y="132.0" width="4.5" height="136.0" rx="2.2" fill="#E64A40" opacity="0.90"/><rect x="313.0" y="123.6" width="4.5" height="152.7" rx="2.2" fill="#E64A40" opacity="0.90"/><rect x="322.0" y="105.0" width="4.5" height="190.1" rx="2.2" fill="#B23A30" opacity="1.00"/><rect x="331.0" y="113.5" width="4.5" height="173.0" rx="2.2" fill="#B23A30" opacity="1.00"/><rect x="340.0" y="142.4" width="4.5" height="115.2" rx="2.2" fill="#E64A40" opacity="0.90"/><rect x="349.0" y="165.7" width="4.5" height="68.7" rx="2.2" fill="#E64A40" opacity="0.90"/><rect x="358.0" y="173.9" width="4.5" height="52.2" rx="2.2" fill="#E64A40" opacity="0.90"/><rect x="367.0" y="120.0" width="4.5" height="160.0" rx="2.2" fill="#E64A40" opacity="0.90"/><rect x="376.0" y="104.6" width="4.5" height="190.8" rx="2.2" fill="#B23A30" opacity="1.00"/><rect x="385.0" y="94.8" width="4.5" height="210.3" rx="2.2" fill="#B23A30" opacity="1.00"/><rect x="394.0" y="100.0" width="4.5" height="200.0" rx="2.2" fill="#B23A30" opacity="1.00"/><rect x="403.0" y="139.8" width="4.5" height="120.3" rx="2.2" fill="#E64A40" opacity="0.90"/><rect x="412.0" y="132.4" width="4.5" height="135.2" rx="2.2" fill="#E64A40" opacity="0.90"/><rect x="421.0" y="111.8" width="4.5" height="176.3" rx="2.2" fill="#E64A40" opacity="0.90"/><rect x="430.0" y="75.1" width="4.5" height="249.7" rx="2.2" fill="#B23A30" opacity="1.00"/><rect x="439.0" y="70.1" width="4.5" height="259.9" rx="2.2" fill="#B23A30" opacity="1.00"/><rect x="448.0" y="89.1" width="4.5" height="221.8" rx="2.2" fill="#B23A30" opacity="1.00"/><rect x="457.0" y="106.1" width="4.5" height="187.9" rx="2.2" fill="#E64A40" opacity="0.90"/><rect x="466.0" y="166.4" width="4.5" height="67.2" rx="2.2" fill="#E64A40" opacity="0.90"/><rect x="475.0" y="111.8" width="4.5" height="176.3" rx="2.2" fill="#E64A40" opacity="0.90"/><rect x="484.0" y="98.3" width="4.5" height="203.4" rx="2.2" fill="#E64A40" opacity="0.90"/><rect x="493.0" y="88.4" width="4.5" height="223.2" rx="2.2" fill="#B23A30" opacity="1.00"/><rect x="502.0" y="96.2" width="4.5" height="207.6" rx="2.2" fill="#B23A30" opacity="1.00"/><rect x="511.0" y="143.9" width="4.5" height="112.2" rx="2.2" fill="#E64A40" opacity="0.90"/><rect x="520.0" y="161.7" width="4.5" height="76.6" rx="2.2" fill="#E64A40" opacity="0.90"/><rect x="529.0" y="153.8" width="4.5" height="92.4" rx="2.2" fill="#E64A40" opacity="0.90"/><rect x="538.0" y="100.9" width="4.5" height="198.2" rx="2.2" fill="#E64A40" opacity="0.90"/><rect x="547.0" y="79.5" width="4.5" height="240.9" rx="2.2" fill="#B23A30" opacity="1.00"/><rect x="556.0" y="82.3" width="4.5" height="235.5" rx="2.2" fill="#B23A30" opacity="1.00"/><rect x="565.0" y="85.3" width="4.5" height="229.4" rx="2.2" fill="#B23A30" opacity="1.00"/><rect x="574.0" y="139.9" width="4.5" height="120.2" rx="2.2" fill="#E64A40" opacity="0.90"/><rect x="583.0" y="117.7" width="4.5" height="164.7" rx="2.2" fill="#E64A40" opacity="0.90"/><rect x="592.0" y="90.6" width="4.5" height="218.8" rx="2.2" fill="#B23A30" opacity="1.00"/><rect x="601.0" y="63.4" width="4.5" height="273.2" rx="2.2" fill="#B23A30" opacity="1.00"/><rect x="610.0" y="55.1" width="4.5" height="289.8" rx="2.2" fill="#B23A30" opacity="1.00"/><rect x="619.0" y="89.8" width="4.5" height="220.4" rx="2.2" fill="#B23A30" opacity="1.00"/><rect x="628.0" y="105.3" width="4.5" height="189.5" rx="2.2" fill="#E64A40" opacity="0.90"/><rect x="637.0" y="154.0" width="4.5" height="92.0" rx="2.2" fill="#E64A40" opacity="0.90"/><rect x="646.0" y="106.2" width="4.5" height="187.6" rx="2.2" fill="#E64A40" opacity="0.90"/><rect x="655.0" y="87.9" width="4.5" height="224.2" rx="2.2" fill="#B23A30" opacity="1.00"/><rect x="664.0" y="91.3" width="4.5" height="217.4" rx="2.2" fill="#B23A30" opacity="1.00"/><rect x="673.0" y="96.3" width="4.5" height="207.5" rx="2.2" fill="#E64A40" opacity="0.90"/><rect x="682.0" y="155.6" width="4.5" height="88.8" rx="2.2" fill="#E64A40" opacity="0.90"/><rect x="691.0" y="164.2" width="4.5" height="71.6" rx="2.2" fill="#E64A40" opacity="0.90"/><rect x="700.0" y="138.2" width="4.5" height="123.6" rx="2.2" fill="#E64A40" opacity="0.90"/><rect x="709.0" y="96.6" width="4.5" height="206.7" rx="2.2" fill="#E64A40" opacity="0.90"/><rect x="718.0" y="71.6" width="4.5" height="256.8" rx="2.2" fill="#B23A30" opacity="1.00"/><rect x="727.0" y="87.8" width="4.5" height="224.4" rx="2.2" fill="#B23A30" opacity="1.00"/><rect x="736.0" y="88.3" width="4.5" height="223.3" rx="2.2" fill="#B23A30" opacity="1.00"/><rect x="745.0" y="139.4" width="4.5" height="121.2" rx="2.2" fill="#E64A40" opacity="0.90"/><rect x="754.0" y="115.4" width="4.5" height="169.1" rx="2.2" fill="#E64A40" opacity="0.90"/><rect x="763.0" y="84.9" width="4.5" height="230.3" rx="2.2" fill="#B23A30" opacity="1.00"/><rect x="772.0" y="72.0" width="4.5" height="255.9" rx="2.2" fill="#B23A30" opacity="1.00"/><rect x="781.0" y="61.7" width="4.5" height="276.6" rx="2.2" fill="#B23A30" opacity="1.00"/><rect x="790.0" y="106.0" width="4.5" height="188.1" rx="2.2" fill="#E64A40" opacity="0.90"/><rect x="799.0" y="119.2" width="4.5" height="161.5" rx="2.2" fill="#E64A40" opacity="0.90"/><rect x="808.0" y="148.5" width="4.5" height="103.1" rx="2.2" fill="#E64A40" opacity="0.90"/><rect x="817.0" y="114.9" width="4.5" height="170.2" rx="2.2" fill="#E64A40" opacity="0.90"/><rect x="826.0" y="94.3" width="4.5" height="211.5" rx="2.2" fill="#B23A30" opacity="1.00"/><rect x="835.0" y="109.7" width="4.5" height="180.5" rx="2.2" fill="#E64A40" opacity="0.90"/><rect x="844.0" y="111.9" width="4.5" height="176.2" rx="2.2" fill="#E64A40" opacity="0.90"/><rect x="853.0" y="156.8" width="4.5" height="86.5" rx="2.2" fill="#E64A40" opacity="0.90"/><rect x="862.0" y="170.0" width="4.5" height="59.9" rx="2.2" fill="#E64A40" opacity="0.90"/><rect x="871.0" y="133.5" width="4.5" height="132.9" rx="2.2" fill="#E64A40" opacity="0.90"/><rect x="880.0" y="108.3" width="4.5" height="183.4" rx="2.2" fill="#E64A40" opacity="0.90"/><rect x="889.0" y="84.1" width="4.5" height="231.9" rx="2.2" fill="#B23A30" opacity="1.00"/><rect x="898.0" y="109.0" width="4.5" height="182.0" rx="2.2" fill="#B23A30" opacity="1.00"/><rect x="907.0" y="108.5" width="4.5" height="183.1" rx="2.2" fill="#B23A30" opacity="1.00"/><rect x="916.0" y="148.4" width="4.5" height="103.2" rx="2.2" fill="#E64A40" opacity="0.90"/><rect x="925.0" y="127.4" width="4.5" height="145.1" rx="2.2" fill="#E64A40" opacity="0.90"/><rect x="934.0" y="98.9" width="4.5" height="202.2" rx="2.2" fill="#B23A30" opacity="1.00"/><rect x="943.0" y="99.6" width="4.5" height="200.9" rx="2.2" fill="#B23A30" opacity="1.00"/><rect x="952.0" y="90.2" width="4.5" height="219.6" rx="2.2" fill="#B23A30" opacity="1.00"/><rect x="961.0" y="125.1" width="4.5" height="149.8" rx="2.2" fill="#E64A40" opacity="0.90"/><rect x="970.0" y="144.3" width="4.5" height="111.3" rx="2.2" fill="#E64A40" opacity="0.90"/><rect x="979.0" y="154.0" width="4.5" height="91.9" rx="2.2" fill="#E64A40" opacity="0.90"/><rect x="988.0" y="137.1" width="4.5" height="125.7" rx="2.2" fill="#E64A40" opacity="0.90"/><rect x="997.0" y="119.3" width="4.5" height="161.4" rx="2.2" fill="#B23A30" opacity="1.00"/><rect x="1006.0" y="140.0" width="4.5" height="120.1" rx="2.2" fill="#E64A40" opacity="0.90"/><rect x="1015.0" y="140.8" width="4.5" height="118.4" rx="2.2" fill="#E64A40" opacity="0.90"/><rect x="1024.0" y="166.4" width="4.5" height="67.2" rx="2.2" fill="#E64A40" opacity="0.90"/><rect x="1033.0" y="175.1" width="4.5" height="49.9" rx="2.2" fill="#E64A40" opacity="0.90"/><rect x="1042.0" y="146.4" width="4.5" height="107.3" rx="2.2" fill="#E64A40" opacity="0.90"/><rect x="1051.0" y="137.4" width="4.5" height="125.2" rx="2.2" fill="#E64A40" opacity="0.90"/><rect x="1060.0" y="120.9" width="4.5" height="158.2" rx="2.2" fill="#B23A30" opacity="1.00"/><rect x="1069.0" y="138.0" width="4.5" height="124.1" rx="2.2" fill="#B23A30" opacity="1.00"/><rect x="1078.0" y="145.2" width="4.5" height="109.6" rx="2.2" fill="#E64A40" opacity="0.90"/><rect x="1087.0" y="168.4" width="4.5" height="63.2" rx="2.2" fill="#E64A40" opacity="0.90"/><rect x="1096.0" y="156.2" width="4.5" height="87.6" rx="2.2" fill="#E64A40" opacity="0.90"/><rect x="1105.0" y="139.1" width="4.5" height="121.8" rx="2.2" fill="#B23A30" opacity="1.00"/><rect x="1114.0" y="147.1" width="4.5" height="105.9" rx="2.2" fill="#B23A30" opacity="1.00"/><rect x="1123.0" y="143.6" width="4.5" height="112.7" rx="2.2" fill="#B23A30" opacity="1.00"/><rect x="1132.0" y="162.7" width="4.5" height="74.5" rx="2.2" fill="#E64A40" opacity="0.90"/><rect x="1141.0" y="177.9" width="4.5" height="44.1" rx="2.2" fill="#E64A40" opacity="0.90"/><rect x="1150.0" y="177.6" width="4.5" height="44.9" rx="2.2" fill="#E64A40" opacity="0.90"/><rect x="1159.0" y="175.9" width="4.5" height="48.2" rx="2.2" fill="#E64A40" opacity="0.90"/><rect x="1168.0" y="171.0" width="4.5" height="57.9" rx="2.2" fill="#B23A30" opacity="1.00"/><rect x="1177.0" y="181.1" width="4.5" height="37.7" rx="2.2" fill="#E64A40" opacity="0.90"/><rect x="1186.0" y="185.6" width="4.5" height="28.8" rx="2.2" fill="#E64A40" opacity="0.90"/><rect x="1195.0" y="194.0" width="4.5" height="12.0" rx="2.2" fill="#E64A40" opacity="0.90"/></g>
<!-- foreground waveform cluster, right side -->
<g opacity="0.95"><rect x="650.0" y="197.0" width="4.4" height="6.0" rx="2.2" fill="#E64A40" opacity="0.90"/><rect x="657.5" y="189.6" width="4.4" height="20.8" rx="2.2" fill="#E64A40" opacity="0.90"/><rect x="665.0" y="174.1" width="4.4" height="51.9" rx="2.2" fill="#B23A30" opacity="1.00"/><rect x="672.5" y="167.6" width="4.4" height="64.8" rx="2.2" fill="#B23A30" opacity="1.00"/><rect x="680.0" y="160.2" width="4.4" height="79.6" rx="2.2" fill="#B23A30" opacity="1.00"/><rect x="687.5" y="163.9" width="4.4" height="72.1" rx="2.2" fill="#B23A30" opacity="1.00"/><rect x="695.0" y="177.9" width="4.4" height="44.3" rx="2.2" fill="#E64A40" opacity="0.90"/><rect x="702.5" y="164.5" width="4.4" height="71.0" rx="2.2" fill="#E64A40" opacity="0.90"/><rect x="710.0" y="159.1" width="4.4" height="81.8" rx="2.2" fill="#E64A40" opacity="0.90"/><rect x="717.5" y="140.2" width="4.4" height="119.6" rx="2.2" fill="#B23A30" opacity="1.00"/><rect x="725.0" y="144.9" width="4.4" height="110.1" rx="2.2" fill="#B23A30" opacity="1.00"/><rect x="732.5" y="155.3" width="4.4" height="89.4" rx="2.2" fill="#E64A40" opacity="0.90"/><rect x="740.0" y="172.5" width="4.4" height="55.0" rx="2.2" fill="#E64A40" opacity="0.90"/><rect x="747.5" y="185.6" width="4.4" height="28.7" rx="2.2" fill="#E64A40" opacity="0.90"/><rect x="755.0" y="146.9" width="4.4" height="106.1" rx="2.2" fill="#E64A40" opacity="0.90"/><rect x="762.5" y="137.0" width="4.4" height="126.1" rx="2.2" fill="#E64A40" opacity="0.90"/><rect x="770.0" y="120.3" width="4.4" height="159.5" rx="2.2" fill="#B23A30" opacity="1.00"/><rect x="777.5" y="125.5" width="4.4" height="148.9" rx="2.2" fill="#B23A30" opacity="1.00"/><rect x="785.0" y="147.3" width="4.4" height="105.4" rx="2.2" fill="#E64A40" opacity="0.90"/><rect x="792.5" y="152.8" width="4.4" height="94.4" rx="2.2" fill="#E64A40" opacity="0.90"/><rect x="800.0" y="138.8" width="4.4" height="122.5" rx="2.2" fill="#E64A40" opacity="0.90"/><rect x="807.5" y="100.3" width="4.4" height="199.3" rx="2.2" fill="#B23A30" opacity="1.00"/><rect x="815.0" y="98.0" width="4.4" height="204.1" rx="2.2" fill="#B23A30" opacity="1.00"/><rect x="822.5" y="102.6" width="4.4" height="194.7" rx="2.2" fill="#B23A30" opacity="1.00"/><rect x="830.0" y="119.1" width="4.4" height="161.8" rx="2.2" fill="#E64A40" opacity="0.90"/><rect x="837.5" y="164.2" width="4.4" height="71.7" rx="2.2" fill="#E64A40" opacity="0.90"/><rect x="845.0" y="128.0" width="4.4" height="143.9" rx="2.2" fill="#E64A40" opacity="0.90"/><rect x="852.5" y="119.8" width="4.4" height="160.5" rx="2.2" fill="#E64A40" opacity="0.90"/><rect x="860.0" y="100.9" width="4.4" height="198.2" rx="2.2" fill="#B23A30" opacity="1.00"/><rect x="867.5" y="110.5" width="4.4" height="178.9" rx="2.2" fill="#B23A30" opacity="1.00"/><rect x="875.0" y="140.9" width="4.4" height="118.2" rx="2.2" fill="#E64A40" opacity="0.90"/><rect x="882.5" y="165.1" width="4.4" height="69.8" rx="2.2" fill="#E64A40" opacity="0.90"/><rect x="890.0" y="173.7" width="4.4" height="52.6" rx="2.2" fill="#E64A40" opacity="0.90"/><rect x="897.5" y="120.2" width="4.4" height="159.5" rx="2.2" fill="#E64A40" opacity="0.90"/><rect x="905.0" y="105.8" width="4.4" height="188.3" rx="2.2" fill="#B23A30" opacity="1.00"/><rect x="912.5" y="97.3" width="4.4" height="205.4" rx="2.2" fill="#B23A30" opacity="1.00"/><rect x="920.0" y="103.4" width="4.4" height="193.2" rx="2.2" fill="#B23A30" opacity="1.00"/><rect x="927.5" y="142.6" width="4.4" height="114.9" rx="2.2" fill="#E64A40" opacity="0.90"/><rect x="935.0" y="136.2" width="4.4" height="127.5" rx="2.2" fill="#E64A40" opacity="0.90"/><rect x="942.5" y="117.9" width="4.4" height="164.2" rx="2.2" fill="#E64A40" opacity="0.90"/><rect x="950.0" y="85.3" width="4.4" height="229.5" rx="2.2" fill="#B23A30" opacity="1.00"/><rect x="957.5" y="82.2" width="4.4" height="235.5" rx="2.2" fill="#B23A30" opacity="1.00"/><rect x="965.0" y="100.9" width="4.4" height="198.1" rx="2.2" fill="#B23A30" opacity="1.00"/><rect x="972.5" y="117.4" width="4.4" height="165.3" rx="2.2" fill="#E64A40" opacity="0.90"/><rect x="980.0" y="170.9" width="4.4" height="58.2" rx="2.2" fill="#E64A40" opacity="0.90"/><rect x="987.5" y="124.9" width="4.4" height="150.1" rx="2.2" fill="#E64A40" opacity="0.90"/><rect x="995.0" y="114.9" width="4.4" height="170.1" rx="2.2" fill="#E64A40" opacity="0.90"/><rect x="1002.5" y="108.3" width="4.4" height="183.3" rx="2.2" fill="#B23A30" opacity="1.00"/><rect x="1010.0" y="116.4" width="4.4" height="167.3" rx="2.2" fill="#B23A30" opacity="1.00"/><rect x="1017.5" y="155.7" width="4.4" height="88.6" rx="2.2" fill="#E64A40" opacity="0.90"/><rect x="1025.0" y="170.4" width="4.4" height="59.2" rx="2.2" fill="#E64A40" opacity="0.90"/><rect x="1032.5" y="165.1" width="4.4" height="69.8" rx="2.2" fill="#E64A40" opacity="0.90"/><rect x="1040.0" y="126.9" width="4.4" height="146.2" rx="2.2" fill="#E64A40" opacity="0.90"/><rect x="1047.5" y="113.3" width="4.4" height="173.3" rx="2.2" fill="#B23A30" opacity="1.00"/><rect x="1055.0" y="117.6" width="4.4" height="164.9" rx="2.2" fill="#B23A30" opacity="1.00"/><rect x="1062.5" y="121.9" width="4.4" height="156.2" rx="2.2" fill="#B23A30" opacity="1.00"/><rect x="1070.0" y="160.3" width="4.4" height="79.4" rx="2.2" fill="#E64A40" opacity="0.90"/><rect x="1077.5" y="147.4" width="4.4" height="105.2" rx="2.2" fill="#E64A40" opacity="0.90"/><rect x="1085.0" y="132.5" width="4.4" height="135.0" rx="2.2" fill="#B23A30" opacity="1.00"/><rect x="1092.5" y="118.8" width="4.4" height="162.4" rx="2.2" fill="#B23A30" opacity="1.00"/><rect x="1100.0" y="117.3" width="4.4" height="165.4" rx="2.2" fill="#B23A30" opacity="1.00"/><rect x="1107.5" y="139.8" width="4.4" height="120.4" rx="2.2" fill="#B23A30" opacity="1.00"/><rect x="1115.0" y="150.7" width="4.4" height="98.6" rx="2.2" fill="#E64A40" opacity="0.90"/><rect x="1122.5" y="177.3" width="4.4" height="45.4" rx="2.2" fill="#E64A40" opacity="0.90"/><rect x="1130.0" y="156.4" width="4.4" height="87.2" rx="2.2" fill="#E64A40" opacity="0.90"/><rect x="1137.5" y="151.3" width="4.4" height="97.5" rx="2.2" fill="#B23A30" opacity="1.00"/><rect x="1145.0" y="156.2" width="4.4" height="87.5" rx="2.2" fill="#B23A30" opacity="1.00"/><rect x="1152.5" y="161.8" width="4.4" height="76.4" rx="2.2" fill="#E64A40" opacity="0.90"/><rect x="1160.0" y="185.3" width="4.4" height="29.4" rx="2.2" fill="#E64A40" opacity="0.90"/><rect x="1167.5" y="189.6" width="4.4" height="20.8" rx="2.2" fill="#E64A40" opacity="0.90"/><rect x="1175.0" y="184.8" width="4.4" height="30.4" rx="2.2" fill="#E64A40" opacity="0.90"/><rect x="1182.5" y="180.0" width="4.4" height="40.0" rx="2.2" fill="#E64A40" opacity="0.90"/><rect x="1190.0" y="183.5" width="4.4" height="32.9" rx="2.2" fill="#B23A30" opacity="1.00"/></g>
<!-- left fade so text sits clean over the wave -->
<rect width="720" height="400" fill="url(#fade)"/>

<!-- brand mark + wordmark, top-left -->
<g transform="translate(72,56) scale(0.12251655629139073)"><rect x="60" y="400" width="100" height="144" rx="26" ry="26" fill="#E64A40"/><rect x="60" y="230" width="100" height="144" rx="26" ry="26" fill="#E64A40"/><rect x="188" y="400" width="100" height="144" rx="26" ry="26" fill="#E64A40"/><rect x="188" y="230" width="100" height="144" rx="26" ry="26" fill="#E64A40"/><rect x="188" y="60" width="100" height="144" rx="26" ry="26" fill="#B23A30"/><rect x="316" y="400" width="100" height="144" rx="26" ry="26" fill="#E64A40"/><rect x="316" y="230" width="100" height="144" rx="26" ry="26" fill="#E64A40"/><rect x="444" y="400" width="100" height="144" rx="26" ry="26" fill="#E64A40"/><rect x="444" y="230" width="100" height="144" rx="26" ry="26" fill="#E64A40"/><rect x="444" y="60" width="100" height="144" rx="26" ry="26" fill="#B23A30"/></g>
<text x="168" y="82" font-size="21" font-weight="500" fill="#F0EEE6" letter-spacing="0.4">Decibel <tspan fill="#9A958A" font-weight="400">Labs</tspan></text>
<text x="168" y="106" font-size="13" fill="#9A958A" letter-spacing="2.5">SPEECH · AI · LAB</text>

<!-- hero -->
<text x="70" y="248" font-size="118" font-weight="700" fill="#F0EEE6" letter-spacing="-2">Reso<tspan fill="#E64A40">-1</tspan></text>

<!-- tagline -->
<text x="76" y="298" font-size="27" font-weight="500" fill="#F0EEE6">Expressive, streaming, tag-controllable TTS</text>

<!-- meta line -->
<text x="76" y="336" font-size="17" fill="#9A958A" letter-spacing="0.3">Orpheus 3B  ·  SNAC 24 kHz  ·  LoRA  ·  Apache-2.0</text>

<!-- tag chips floating on the wave -->
<g transform="translate(690,250)"><rect x="0" y="0" width="96" height="40" rx="20" fill="#1F1D1A" stroke="#B23A30" stroke-width="1.5"/><text x="48.0" y="26" font-family="SFMono-Regular,Menlo,monospace" font-size="17" fill="#F0EEE6" text-anchor="middle" letter-spacing="0.5">&lt;laugh&gt;</text></g>
<g transform="translate(806,292)"><rect x="0" y="0" width="82" height="40" rx="20" fill="#1F1D1A" stroke="#B23A30" stroke-width="1.5"/><text x="41.0" y="26" font-family="SFMono-Regular,Menlo,monospace" font-size="17" fill="#F0EEE6" text-anchor="middle" letter-spacing="0.5">&lt;sigh&gt;</text></g>
<g transform="translate(910,250)"><rect x="0" y="0" width="108" height="40" rx="20" fill="#1F1D1A" stroke="#B23A30" stroke-width="1.5"/><text x="54.0" y="26" font-family="SFMono-Regular,Menlo,monospace" font-size="17" fill="#F0EEE6" text-anchor="middle" letter-spacing="0.5">&lt;whisper&gt;</text></g>

<!-- bottom hairline accent -->
<rect x="70" y="360" width="120" height="3" rx="1.5" fill="#E64A40"/>
</svg>