<svg xmlns="http://www.w3.org/2000/svg" width="1500" height="500" viewBox="0 0 1500 500" font-family="Inter,'Helvetica Neue',Arial,sans-serif">
<defs>
 <radialGradient id="bg" cx="50%" cy="42%" r="80%">
  <stop offset="0%" stop-color="#221F1B"/><stop offset="55%" stop-color="#161513"/><stop offset="100%" stop-color="#0F0E0D"/>
 </radialGradient>
 <linearGradient id="vine" x1="0" y1="0" x2="1" y2="0">
  <stop offset="0%" stop-color="#161513"/><stop offset="18%" stop-color="#161513" stop-opacity="0"/>
  <stop offset="82%" stop-color="#161513" stop-opacity="0"/><stop offset="100%" stop-color="#161513"/>
 </linearGradient>
</defs>
<rect width="1500" height="500" fill="url(#bg)"/>
<!-- full-width waveform band -->
<g opacity="0.5"><rect x="40.0" y="247.5" width="4.6" height="5.0" rx="2.3" fill="#B23A30" opacity="1.00"/><rect x="50.0" y="229.5" width="4.6" height="40.9" rx="2.3" fill="#B23A30" opacity="1.00"/><rect x="60.0" y="227.0" width="4.6" height="46.0" rx="2.3" fill="#B23A30" opacity="1.00"/><rect x="70.0" y="234.5" width="4.6" height="31.0" rx="2.3" fill="#E64A40" opacity="0.90"/><rect x="80.0" y="223.8" width="4.6" height="52.5" rx="2.3" fill="#E64A40" opacity="0.90"/><rect x="90.0" y="218.7" width="4.6" height="62.6" rx="2.3" fill="#E64A40" opacity="0.90"/><rect x="100.0" y="203.2" width="4.6" height="93.7" rx="2.3" fill="#B23A30" opacity="1.00"/><rect x="110.0" y="206.2" width="4.6" height="87.7" rx="2.3" fill="#B23A30" opacity="1.00"/><rect x="120.0" y="213.9" width="4.6" height="72.1" rx="2.3" fill="#E64A40" opacity="0.90"/><rect x="130.0" y="227.6" width="4.6" height="44.8" rx="2.3" fill="#E64A40" opacity="0.90"/><rect x="140.0" y="238.2" width="4.6" height="23.6" rx="2.3" fill="#E64A40" opacity="0.90"/><rect x="150.0" y="206.0" width="4.6" height="87.9" rx="2.3" fill="#E64A40" opacity="0.90"/><rect x="160.0" y="197.4" width="4.6" height="105.1" rx="2.3" fill="#E64A40" opacity="0.90"/><rect x="170.0" y="183.1" width="4.6" height="133.8" rx="2.3" fill="#B23A30" opacity="1.00"/><rect x="180.0" y="187.2" width="4.6" height="125.7" rx="2.3" fill="#B23A30" opacity="1.00"/><rect x="190.0" y="205.2" width="4.6" height="89.5" rx="2.3" fill="#E64A40" opacity="0.90"/><rect x="200.0" y="209.7" width="4.6" height="80.6" rx="2.3" fill="#E64A40" opacity="0.90"/><rect x="210.0" y="197.4" width="4.6" height="105.1" rx="2.3" fill="#E64A40" opacity="0.90"/><rect x="220.0" y="163.9" width="4.6" height="172.2" rx="2.3" fill="#B23A30" opacity="1.00"/><rect x="230.0" y="161.3" width="4.6" height="177.3" rx="2.3" fill="#B23A30" opacity="1.00"/><rect x="240.0" y="164.9" width="4.6" height="170.3" rx="2.3" fill="#B23A30" opacity="1.00"/><rect x="250.0" y="178.8" width="4.6" height="142.4" rx="2.3" fill="#E64A40" opacity="0.90"/><rect x="260.0" y="218.2" width="4.6" height="63.5" rx="2.3" fill="#E64A40" opacity="0.90"/><rect x="270.0" y="185.8" width="4.6" height="128.5" rx="2.3" fill="#E64A40" opacity="0.90"/><rect x="280.0" y="177.8" width="4.6" height="144.3" rx="2.3" fill="#E64A40" opacity="0.90"/><rect x="290.0" y="160.2" width="4.6" height="179.6" rx="2.3" fill="#B23A30" opacity="1.00"/><rect x="300.0" y="168.3" width="4.6" height="163.5" rx="2.3" fill="#B23A30" opacity="1.00"/><rect x="310.0" y="195.5" width="4.6" height="108.9" rx="2.3" fill="#E64A40" opacity="0.90"/><rect x="320.0" y="217.6" width="4.6" height="64.9" rx="2.3" fill="#E64A40" opacity="0.90"/><rect x="330.0" y="225.3" width="4.6" height="49.4" rx="2.3" fill="#E64A40" opacity="0.90"/><rect x="340.0" y="174.3" width="4.6" height="151.3" rx="2.3" fill="#E64A40" opacity="0.90"/><rect x="350.0" y="159.8" width="4.6" height="180.5" rx="2.3" fill="#B23A30" opacity="1.00"/><rect x="360.0" y="150.5" width="4.6" height="199.0" rx="2.3" fill="#B23A30" opacity="1.00"/><rect x="370.0" y="155.3" width="4.6" height="189.4" rx="2.3" fill="#B23A30" opacity="1.00"/><rect x="380.0" y="193.0" width="4.6" height="114.0" rx="2.3" fill="#E64A40" opacity="0.90"/><rect x="390.0" y="185.9" width="4.6" height="128.1" rx="2.3" fill="#E64A40" opacity="0.90"/><rect x="400.0" y="166.4" width="4.6" height="167.2" rx="2.3" fill="#E64A40" opacity="0.90"/><rect x="410.0" y="131.6" width="4.6" height="236.9" rx="2.3" fill="#B23A30" opacity="1.00"/><rect x="420.0" y="126.6" width="4.6" height="246.7" rx="2.3" fill="#B23A30" opacity="1.00"/><rect x="430.0" y="144.6" width="4.6" height="210.7" rx="2.3" fill="#B23A30" opacity="1.00"/><rect x="440.0" y="160.7" width="4.6" height="178.7" rx="2.3" fill="#E64A40" opacity="0.90"/><rect x="450.0" y="218.0" width="4.6" height="64.0" rx="2.3" fill="#E64A40" opacity="0.90"/><rect x="460.0" y="166.0" width="4.6" height="168.0" rx="2.3" fill="#E64A40" opacity="0.90"/><rect x="470.0" y="153.0" width="4.6" height="194.0" rx="2.3" fill="#E64A40" opacity="0.90"/><rect x="480.0" y="143.4" width="4.6" height="213.1" rx="2.3" fill="#B23A30" opacity="1.00"/><rect x="490.0" y="150.7" width="4.6" height="198.5" rx="2.3" fill="#B23A30" opacity="1.00"/><rect x="500.0" y="196.3" width="4.6" height="107.4" rx="2.3" fill="#E64A40" opacity="0.90"/><rect x="510.0" y="213.3" width="4.6" height="73.5" rx="2.3" fill="#E64A40" opacity="0.90"/><rect x="520.0" y="205.6" width="4.6" height="88.7" rx="2.3" fill="#E64A40" opacity="0.90"/><rect x="530.0" y="154.7" width="4.6" height="190.6" rx="2.3" fill="#E64A40" opacity="0.90"/><rect x="540.0" y="133.9" width="4.6" height="232.1" rx="2.3" fill="#B23A30" opacity="1.00"/><rect x="550.0" y="136.4" width="4.6" height="227.3" rx="2.3" fill="#B23A30" opacity="1.00"/><rect x="560.0" y="139.1" width="4.6" height="221.9" rx="2.3" fill="#B23A30" opacity="1.00"/><rect x="570.0" y="191.8" width="4.6" height="116.5" rx="2.3" fill="#E64A40" opacity="0.90"/><rect x="580.0" y="170.1" width="4.6" height="159.9" rx="2.3" fill="#E64A40" opacity="0.90"/><rect x="590.0" y="143.6" width="4.6" height="212.9" rx="2.3" fill="#B23A30" opacity="1.00"/><rect x="600.0" y="116.8" width="4.6" height="266.4" rx="2.3" fill="#B23A30" opacity="1.00"/><rect x="610.0" y="108.4" width="4.6" height="283.3" rx="2.3" fill="#B23A30" opacity="1.00"/><rect x="620.0" y="142.0" width="4.6" height="216.0" rx="2.3" fill="#B23A30" opacity="1.00"/><rect x="630.0" y="156.9" width="4.6" height="186.1" rx="2.3" fill="#E64A40" opacity="0.90"/><rect x="640.0" y="204.7" width="4.6" height="90.7" rx="2.3" fill="#E64A40" opacity="0.90"/><rect x="650.0" y="157.4" width="4.6" height="185.3" rx="2.3" fill="#E64A40" opacity="0.90"/><rect x="660.0" y="138.9" width="4.6" height="222.2" rx="2.3" fill="#B23A30" opacity="1.00"/><rect x="670.0" y="142.0" width="4.6" height="216.0" rx="2.3" fill="#B23A30" opacity="1.00"/><rect x="680.0" y="146.6" width="4.6" height="206.8" rx="2.3" fill="#E64A40" opacity="0.90"/><rect x="690.0" y="205.6" width="4.6" height="88.8" rx="2.3" fill="#E64A40" opacity="0.90"/><rect x="700.0" y="214.1" width="4.6" height="71.9" rx="2.3" fill="#E64A40" opacity="0.90"/><rect x="710.0" y="187.8" width="4.6" height="124.5" rx="2.3" fill="#E64A40" opacity="0.90"/><rect x="720.0" y="145.5" width="4.6" height="209.0" rx="2.3" fill="#E64A40" opacity="0.90"/><rect x="730.0" y="119.7" width="4.6" height="260.6" rx="2.3" fill="#B23A30" opacity="1.00"/><rect x="740.0" y="135.7" width="4.6" height="228.6" rx="2.3" fill="#B23A30" opacity="1.00"/><rect x="750.0" y="135.8" width="4.6" height="228.5" rx="2.3" fill="#B23A30" opacity="1.00"/><rect x="760.0" y="187.7" width="4.6" height="124.5" rx="2.3" fill="#E64A40" opacity="0.90"/><rect x="770.0" y="162.7" width="4.6" height="174.5" rx="2.3" fill="#E64A40" opacity="0.90"/><rect x="780.0" y="130.6" width="4.6" height="238.8" rx="2.3" fill="#B23A30" opacity="1.00"/><rect x="790.0" y="116.7" width="4.6" height="266.7" rx="2.3" fill="#B23A30" opacity="1.00"/><rect x="800.0" y="105.2" width="4.6" height="289.6" rx="2.3" fill="#B23A30" opacity="1.00"/><rect x="810.0" y="151.0" width="4.6" height="198.0" rx="2.3" fill="#E64A40" opacity="0.90"/><rect x="820.0" y="164.5" width="4.6" height="170.9" rx="2.3" fill="#E64A40" opacity="0.90"/><rect x="830.0" y="195.2" width="4.6" height="109.7" rx="2.3" fill="#E64A40" opacity="0.90"/><rect x="840.0" y="158.9" width="4.6" height="182.2" rx="2.3" fill="#E64A40" opacity="0.90"/><rect x="850.0" y="136.2" width="4.6" height="227.7" rx="2.3" fill="#B23A30" opacity="1.00"/><rect x="860.0" y="152.2" width="4.6" height="195.6" rx="2.3" fill="#E64A40" opacity="0.90"/><rect x="870.0" y="153.9" width="4.6" height="192.2" rx="2.3" fill="#E64A40" opacity="0.90"/><rect x="880.0" y="202.5" width="4.6" height="95.0" rx="2.3" fill="#E64A40" opacity="0.90"/><rect x="890.0" y="216.9" width="4.6" height="66.2" rx="2.3" fill="#E64A40" opacity="0.90"/><rect x="900.0" y="176.0" width="4.6" height="148.1" rx="2.3" fill="#E64A40" opacity="0.90"/><rect x="910.0" y="147.1" width="4.6" height="205.9" rx="2.3" fill="#E64A40" opacity="0.90"/><rect x="920.0" y="118.8" width="4.6" height="262.4" rx="2.3" fill="#B23A30" opacity="1.00"/><rect x="930.0" y="146.1" width="4.6" height="207.7" rx="2.3" fill="#B23A30" opacity="1.00"/><rect x="940.0" y="144.6" width="4.6" height="210.8" rx="2.3" fill="#B23A30" opacity="1.00"/><rect x="950.0" y="190.0" width="4.6" height="119.9" rx="2.3" fill="#E64A40" opacity="0.90"/><rect x="960.0" y="164.9" width="4.6" height="170.2" rx="2.3" fill="#E64A40" opacity="0.90"/><rect x="970.0" y="130.2" width="4.6" height="239.6" rx="2.3" fill="#B23A30" opacity="1.00"/><rect x="980.0" y="129.7" width="4.6" height="240.5" rx="2.3" fill="#B23A30" opacity="1.00"/><rect x="990.0" y="117.1" width="4.6" height="265.9" rx="2.3" fill="#B23A30" opacity="1.00"/><rect x="1000.0" y="158.3" width="4.6" height="183.4" rx="2.3" fill="#E64A40" opacity="0.90"/><rect x="1010.0" y="181.0" width="4.6" height="138.0" rx="2.3" fill="#E64A40" opacity="0.90"/><rect x="1020.0" y="192.3" width="4.6" height="115.4" rx="2.3" fill="#E64A40" opacity="0.90"/><rect x="1030.0" y="170.0" width="4.6" height="160.1" rx="2.3" fill="#E64A40" opacity="0.90"/><rect x="1040.0" y="145.8" width="4.6" height="208.4" rx="2.3" fill="#B23A30" opacity="1.00"/><rect x="1050.0" y="171.2" width="4.6" height="157.5" rx="2.3" fill="#E64A40" opacity="0.90"/><rect x="1060.0" y="171.1" width="4.6" height="157.8" rx="2.3" fill="#E64A40" opacity="0.90"/><rect x="1070.0" y="204.4" width="4.6" height="91.1" rx="2.3" fill="#E64A40" opacity="0.90"/><rect x="1080.0" y="215.5" width="4.6" height="69.0" rx="2.3" fill="#E64A40" opacity="0.90"/><rect x="1090.0" y="174.4" width="4.6" height="151.3" rx="2.3" fill="#E64A40" opacity="0.90"/><rect x="1100.0" y="159.8" width="4.6" height="180.3" rx="2.3" fill="#E64A40" opacity="0.90"/><rect x="1110.0" y="133.3" width="4.6" height="233.4" rx="2.3" fill="#B23A30" opacity="1.00"/><rect x="1120.0" y="156.2" width="4.6" height="187.6" rx="2.3" fill="#B23A30" opacity="1.00"/><rect x="1130.0" y="164.8" width="4.6" height="170.4" rx="2.3" fill="#E64A40" opacity="0.90"/><rect x="1140.0" y="199.4" width="4.6" height="101.2" rx="2.3" fill="#E64A40" opacity="0.90"/><rect x="1150.0" y="177.5" width="4.6" height="145.1" rx="2.3" fill="#E64A40" opacity="0.90"/><rect x="1160.0" y="145.4" width="4.6" height="209.3" rx="2.3" fill="#B23A30" opacity="1.00"/><rect x="1170.0" y="155.2" width="4.6" height="189.7" rx="2.3" fill="#B23A30" opacity="1.00"/><rect x="1180.0" y="144.2" width="4.6" height="211.6" rx="2.3" fill="#B23A30" opacity="1.00"/><rect x="1190.0" y="176.2" width="4.6" height="147.7" rx="2.3" fill="#E64A40" opacity="0.90"/><rect x="1200.0" y="203.5" width="4.6" height="93.0" rx="2.3" fill="#E64A40" opacity="0.90"/><rect x="1210.0" y="199.0" width="4.6" height="101.9" rx="2.3" fill="#E64A40" opacity="0.90"/><rect x="1220.0" y="190.1" width="4.6" height="119.8" rx="2.3" fill="#E64A40" opacity="0.90"/><rect x="1230.0" y="169.3" width="4.6" height="161.4" rx="2.3" fill="#B23A30" opacity="1.00"/><rect x="1240.0" y="188.8" width="4.6" height="122.3" rx="2.3" fill="#E64A40" opacity="0.90"/><rect x="1250.0" y="191.7" width="4.6" height="116.7" rx="2.3" fill="#E64A40" opacity="0.90"/><rect x="1260.0" y="213.9" width="4.6" height="72.1" rx="2.3" fill="#E64A40" opacity="0.90"/><rect x="1270.0" y="221.4" width="4.6" height="57.1" rx="2.3" fill="#E64A40" opacity="0.90"/><rect x="1280.0" y="188.2" width="4.6" height="123.5" rx="2.3" fill="#E64A40" opacity="0.90"/><rect x="1290.0" y="185.8" width="4.6" height="128.4" rx="2.3" fill="#E64A40" opacity="0.90"/><rect x="1300.0" y="167.1" width="4.6" height="165.8" rx="2.3" fill="#B23A30" opacity="1.00"/><rect x="1310.0" y="182.8" width="4.6" height="134.4" rx="2.3" fill="#B23A30" opacity="1.00"/><rect x="1320.0" y="196.7" width="4.6" height="106.6" rx="2.3" fill="#E64A40" opacity="0.90"/><rect x="1330.0" y="215.1" width="4.6" height="69.7" rx="2.3" fill="#E64A40" opacity="0.90"/><rect x="1340.0" y="203.4" width="4.6" height="93.2" rx="2.3" fill="#E64A40" opacity="0.90"/><rect x="1350.0" y="182.7" width="4.6" height="134.6" rx="2.3" fill="#B23A30" opacity="1.00"/><rect x="1360.0" y="190.6" width="4.6" height="118.9" rx="2.3" fill="#B23A30" opacity="1.00"/><rect x="1370.0" y="191.2" width="4.6" height="117.7" rx="2.3" fill="#B23A30" opacity="1.00"/><rect x="1380.0" y="209.6" width="4.6" height="80.7" rx="2.3" fill="#E64A40" opacity="0.90"/><rect x="1390.0" y="230.6" width="4.6" height="38.8" rx="2.3" fill="#E64A40" opacity="0.90"/><rect x="1400.0" y="222.5" width="4.6" height="55.0" rx="2.3" fill="#E64A40" opacity="0.90"/><rect x="1410.0" y="223.8" width="4.6" height="52.3" rx="2.3" fill="#E64A40" opacity="0.90"/><rect x="1420.0" y="216.5" width="4.6" height="67.1" rx="2.3" fill="#B23A30" opacity="1.00"/><rect x="1430.0" y="226.7" width="4.6" height="46.6" rx="2.3" fill="#E64A40" opacity="0.90"/><rect x="1440.0" y="232.6" width="4.6" height="34.9" rx="2.3" fill="#E64A40" opacity="0.90"/><rect x="1450.0" y="241.6" width="4.6" height="16.9" rx="2.3" fill="#E64A40" opacity="0.90"/></g>
<!-- edge vignette to protect crop zones -->
<rect width="1500" height="500" fill="url(#vine)"/>
<!-- center lockup on a soft plate for legibility over the wave -->
<rect x="470" y="150" width="560" height="200" rx="24" fill="#161513" opacity="0.55"/>
<g transform="translate(560,178) scale(0.1456953642384106)"><rect x="60" y="400" width="100" height="144" rx="26" ry="26" fill="#E64A40"/><rect x="60" y="230" width="100" height="144" rx="26" ry="26" fill="#E64A40"/><rect x="188" y="400" width="100" height="144" rx="26" ry="26" fill="#E64A40"/><rect x="188" y="230" width="100" height="144" rx="26" ry="26" fill="#E64A40"/><rect x="188" y="60" width="100" height="144" rx="26" ry="26" fill="#B23A30"/><rect x="316" y="400" width="100" height="144" rx="26" ry="26" fill="#E64A40"/><rect x="316" y="230" width="100" height="144" rx="26" ry="26" fill="#E64A40"/><rect x="444" y="400" width="100" height="144" rx="26" ry="26" fill="#E64A40"/><rect x="444" y="230" width="100" height="144" rx="26" ry="26" fill="#E64A40"/><rect x="444" y="60" width="100" height="144" rx="26" ry="26" fill="#B23A30"/></g>
<text x="672" y="230" font-size="52" font-weight="600" fill="#F0EEE6" letter-spacing="0.4">Decibel <tspan fill="#9A958A" font-weight="400">Labs</tspan></text>
<text x="674" y="272" font-size="20" fill="#9A958A" letter-spacing="3.5">SPEECH · AI · LAB</text>
<rect x="674" y="296" width="300" height="3" rx="1.5" fill="#E64A40"/>
<text x="674" y="330" font-size="19" fill="#F0EEE6" opacity="0.85">Open, expressive voice models</text>
</svg>